<?xml version="1.0" encoding="UTF-8" standalone="no"?>
<!DOCTYPE svg PUBLIC "-//W3C//DTD SVG 1.1//EN"
 "http://www.w3.org/Graphics/SVG/1.1/DTD/svg11.dtd">
<!-- Generated by graphviz version 2.43.0 (0)
 -->
<!-- Title: include/aloo.h Pages: 1 -->
<svg width="623pt" height="196pt"
 viewBox="0.00 0.00 622.50 196.00" xmlns="http://www.w3.org/2000/svg" xmlns:xlink="http://www.w3.org/1999/xlink">
<g id="graph0" class="graph" transform="scale(1 1) rotate(0) translate(4 192)">
<title>include/aloo.h</title>
<polygon fill="white" stroke="transparent" points="-4,4 -4,-192 618.5,-192 618.5,4 -4,4"/>
<!-- Node1 -->
<g id="node1" class="node">
<title>Node1</title>
<g id="a_node1"><a xlink:title="Aloo Project Main file It conatins all the header files.">
<polygon fill="#bfbfbf" stroke="black" points="254.5,-168.5 254.5,-187.5 339.5,-187.5 339.5,-168.5 254.5,-168.5"/>
<text text-anchor="middle" x="297" y="-175.5" font-family="Helvetica,sans-Serif" font-size="10.00">include/aloo.h</text>
</a>
</g>
</g>
<!-- Node2 -->
<g id="node2" class="node">
<title>Node2</title>
<g id="a_node2"><a xlink:href="$app_8h.html" xlink:title="Aloo Application related functions.">
<polygon fill="white" stroke="black" points="0,-112.5 0,-131.5 44,-131.5 44,-112.5 0,-112.5"/>
<text text-anchor="middle" x="22" y="-119.5" font-family="Helvetica,sans-Serif" font-size="10.00">app.h</text>
</a>
</g>
</g>
<!-- Node1&#45;&gt;Node2 -->
<g id="edge1" class="edge">
<title>Node1&#45;&gt;Node2</title>
<path fill="none" stroke="midnightblue" d="M254.41,-170.47C207.61,-163.01 130.03,-149.77 54.45,-132.16"/>
<polygon fill="midnightblue" stroke="midnightblue" points="54.82,-128.65 44.28,-129.76 53.21,-135.46 54.82,-128.65"/>
</g>
<!-- Node5 -->
<g id="node5" class="node">
<title>Node5</title>
<g id="a_node5"><a xlink:href="$box_8h.html" xlink:title="Aloo Box functions.">
<polygon fill="white" stroke="black" points="62,-112.5 62,-131.5 106,-131.5 106,-112.5 62,-112.5"/>
<text text-anchor="middle" x="84" y="-119.5" font-family="Helvetica,sans-Serif" font-size="10.00">box.h</text>
</a>
</g>
</g>
<!-- Node1&#45;&gt;Node5 -->
<g id="edge5" class="edge">
<title>Node1&#45;&gt;Node5</title>
<path fill="none" stroke="midnightblue" d="M260.63,-168.46C225.83,-160.19 171.63,-147.05 115.99,-132.19"/>
<polygon fill="midnightblue" stroke="midnightblue" points="116.89,-128.81 106.32,-129.6 115.07,-135.57 116.89,-128.81"/>
</g>
<!-- Node6 -->
<g id="node6" class="node">
<title>Node6</title>
<g id="a_node6"><a xlink:href="$builder_8h.html" xlink:title="This file contains UI Builder related functions.">
<polygon fill="white" stroke="black" points="340.5,-112.5 340.5,-131.5 399.5,-131.5 399.5,-112.5 340.5,-112.5"/>
<text text-anchor="middle" x="370" y="-119.5" font-family="Helvetica,sans-Serif" font-size="10.00">builder.h</text>
</a>
</g>
</g>
<!-- Node1&#45;&gt;Node6 -->
<g id="edge8" class="edge">
<title>Node1&#45;&gt;Node6</title>
<path fill="none" stroke="midnightblue" d="M308.73,-168.32C319.84,-160.11 336.74,-147.6 349.98,-137.81"/>
<polygon fill="midnightblue" stroke="midnightblue" points="352.1,-140.59 358.06,-131.83 347.94,-134.97 352.1,-140.59"/>
</g>
<!-- Node7 -->
<g id="node7" class="node">
<title>Node7</title>
<g id="a_node7"><a xlink:href="$button_8h.html" xlink:title="Aloo Button related functions.">
<polygon fill="white" stroke="black" points="417.5,-112.5 417.5,-131.5 474.5,-131.5 474.5,-112.5 417.5,-112.5"/>
<text text-anchor="middle" x="446" y="-119.5" font-family="Helvetica,sans-Serif" font-size="10.00">button.h</text>
</a>
</g>
</g>
<!-- Node1&#45;&gt;Node7 -->
<g id="edge10" class="edge">
<title>Node1&#45;&gt;Node7</title>
<path fill="none" stroke="midnightblue" d="M320.61,-168.44C345.46,-159.44 384.77,-145.19 412.75,-135.05"/>
<polygon fill="midnightblue" stroke="midnightblue" points="414.29,-138.21 422.5,-131.52 411.91,-131.63 414.29,-138.21"/>
</g>
<!-- Node8 -->
<g id="node8" class="node">
<title>Node8</title>
<g id="a_node8"><a xlink:href="$grid_8h.html" xlink:title="Aloo Grid related functions.">
<polygon fill="white" stroke="black" points="493,-112.5 493,-131.5 537,-131.5 537,-112.5 493,-112.5"/>
<text text-anchor="middle" x="515" y="-119.5" font-family="Helvetica,sans-Serif" font-size="10.00">grid.h</text>
</a>
</g>
</g>
<!-- Node1&#45;&gt;Node8 -->
<g id="edge12" class="edge">
<title>Node1&#45;&gt;Node8</title>
<path fill="none" stroke="midnightblue" d="M334.74,-168.46C370.53,-160.24 426.03,-147.19 482.82,-132.23"/>
<polygon fill="midnightblue" stroke="midnightblue" points="483.91,-135.56 492.68,-129.61 482.12,-128.79 483.91,-135.56"/>
</g>
<!-- Node9 -->
<g id="node9" class="node">
<title>Node9</title>
<g id="a_node9"><a xlink:href="$label_8h.html" xlink:title="Aloo Label related functions.">
<polygon fill="white" stroke="black" points="124,-112.5 124,-131.5 174,-131.5 174,-112.5 124,-112.5"/>
<text text-anchor="middle" x="149" y="-119.5" font-family="Helvetica,sans-Serif" font-size="10.00">label.h</text>
</a>
</g>
</g>
<!-- Node1&#45;&gt;Node9 -->
<g id="edge15" class="edge">
<title>Node1&#45;&gt;Node9</title>
<path fill="none" stroke="midnightblue" d="M273.55,-168.44C248.87,-159.44 209.81,-145.19 182.02,-135.05"/>
<polygon fill="midnightblue" stroke="midnightblue" points="182.94,-131.66 172.34,-131.52 180.54,-138.23 182.94,-131.66"/>
</g>
<!-- Node10 -->
<g id="node10" class="node">
<title>Node10</title>
<g id="a_node10"><a xlink:href="$macros_8h.html" xlink:title="Aloo Project Macros related functions.">
<polygon fill="white" stroke="black" points="192,-112.5 192,-131.5 254,-131.5 254,-112.5 192,-112.5"/>
<text text-anchor="middle" x="223" y="-119.5" font-family="Helvetica,sans-Serif" font-size="10.00">macros.h</text>
</a>
</g>
</g>
<!-- Node1&#45;&gt;Node10 -->
<g id="edge17" class="edge">
<title>Node1&#45;&gt;Node10</title>
<path fill="none" stroke="midnightblue" d="M285.11,-168.32C273.85,-160.11 256.71,-147.6 243.29,-137.81"/>
<polygon fill="midnightblue" stroke="midnightblue" points="245.25,-134.9 235.11,-131.83 241.12,-140.56 245.25,-134.9"/>
</g>
<!-- Node11 -->
<g id="node11" class="node">
<title>Node11</title>
<g id="a_node11"><a xlink:href="$style_8h.html" xlink:title="Aloo CSS related functions.">
<polygon fill="white" stroke="black" points="272,-112.5 272,-131.5 322,-131.5 322,-112.5 272,-112.5"/>
<text text-anchor="middle" x="297" y="-119.5" font-family="Helvetica,sans-Serif" font-size="10.00">style.h</text>
</a>
</g>
</g>
<!-- Node1&#45;&gt;Node11 -->
<g id="edge19" class="edge">
<title>Node1&#45;&gt;Node11</title>
<path fill="none" stroke="midnightblue" d="M297,-168.08C297,-161.01 297,-150.86 297,-141.99"/>
<polygon fill="midnightblue" stroke="midnightblue" points="300.5,-141.75 297,-131.75 293.5,-141.75 300.5,-141.75"/>
</g>
<!-- Node12 -->
<g id="node12" class="node">
<title>Node12</title>
<g id="a_node12"><a xlink:href="$widget_8h.html" xlink:title="Aloo Widget related functions.">
<polygon fill="white" stroke="black" points="555.5,-112.5 555.5,-131.5 614.5,-131.5 614.5,-112.5 555.5,-112.5"/>
<text text-anchor="middle" x="585" y="-119.5" font-family="Helvetica,sans-Serif" font-size="10.00">widget.h</text>
</a>
</g>
</g>
<!-- Node1&#45;&gt;Node12 -->
<g id="edge21" class="edge">
<title>Node1&#45;&gt;Node12</title>
<path fill="none" stroke="midnightblue" d="M339.86,-169.9C387.53,-161.86 467.06,-148.01 545.21,-132.08"/>
<polygon fill="midnightblue" stroke="midnightblue" points="546.13,-135.47 555.22,-130.03 544.72,-128.61 546.13,-135.47"/>
</g>
<!-- Node3 -->
<g id="node3" class="node">
<title>Node3</title>
<g id="a_node3"><a xlink:href="$types_8h.html" xlink:title="Aloo Project Types related functions.">
<polygon fill="white" stroke="black" points="270.5,-56.5 270.5,-75.5 323.5,-75.5 323.5,-56.5 270.5,-56.5"/>
<text text-anchor="middle" x="297" y="-63.5" font-family="Helvetica,sans-Serif" font-size="10.00">types.h</text>
</a>
</g>
</g>
<!-- Node2&#45;&gt;Node3 -->
<g id="edge2" class="edge">
<title>Node2&#45;&gt;Node3</title>
<path fill="none" stroke="midnightblue" d="M44.28,-114.24C47.2,-113.44 50.16,-112.67 53,-112 126.03,-94.71 212.66,-80.11 260.56,-72.55"/>
<polygon fill="midnightblue" stroke="midnightblue" points="261.12,-76.01 270.46,-71 260.04,-69.09 261.12,-76.01"/>
</g>
<!-- Node4 -->
<g id="node4" class="node">
<title>Node4</title>
<g id="a_node4"><a xlink:title=" ">
<polygon fill="white" stroke="#bfbfbf" points="267,-0.5 267,-19.5 327,-19.5 327,-0.5 267,-0.5"/>
<text text-anchor="middle" x="297" y="-7.5" font-family="Helvetica,sans-Serif" font-size="10.00">gtk/gtk.h</text>
</a>
</g>
</g>
<!-- Node2&#45;&gt;Node4 -->
<g id="edge4" class="edge">
<title>Node2&#45;&gt;Node4</title>
<path fill="none" stroke="midnightblue" d="M40.23,-112.3C67.66,-99.33 121.31,-74.5 168,-56 198.95,-43.74 234.75,-31.39 260.76,-22.74"/>
<polygon fill="midnightblue" stroke="midnightblue" points="262.18,-25.96 270.57,-19.5 259.98,-19.32 262.18,-25.96"/>
</g>
<!-- Node3&#45;&gt;Node4 -->
<g id="edge3" class="edge">
<title>Node3&#45;&gt;Node4</title>
<path fill="none" stroke="midnightblue" d="M297,-56.08C297,-49.01 297,-38.86 297,-29.99"/>
<polygon fill="midnightblue" stroke="midnightblue" points="300.5,-29.75 297,-19.75 293.5,-29.75 300.5,-29.75"/>
</g>
<!-- Node5&#45;&gt;Node3 -->
<g id="edge6" class="edge">
<title>Node5&#45;&gt;Node3</title>
<path fill="none" stroke="midnightblue" d="M106.32,-114.4C109.24,-113.58 112.19,-112.76 115,-112 165.28,-98.49 223.79,-84.29 260.61,-75.54"/>
<polygon fill="midnightblue" stroke="midnightblue" points="261.47,-78.94 270.39,-73.23 259.85,-72.13 261.47,-78.94"/>
</g>
<!-- Node5&#45;&gt;Node4 -->
<g id="edge7" class="edge">
<title>Node5&#45;&gt;Node4</title>
<path fill="none" stroke="midnightblue" d="M100.71,-112.37C137.81,-93.21 227.22,-47.04 271.41,-24.22"/>
<polygon fill="midnightblue" stroke="midnightblue" points="273.08,-27.29 280.36,-19.59 269.87,-21.07 273.08,-27.29"/>
</g>
<!-- Node6&#45;&gt;Node3 -->
<g id="edge9" class="edge">
<title>Node6&#45;&gt;Node3</title>
<path fill="none" stroke="midnightblue" d="M358.27,-112.32C347.16,-104.11 330.26,-91.6 317.02,-81.81"/>
<polygon fill="midnightblue" stroke="midnightblue" points="319.06,-78.97 308.94,-75.83 314.9,-84.59 319.06,-78.97"/>
</g>
<!-- Node7&#45;&gt;Node3 -->
<g id="edge11" class="edge">
<title>Node7&#45;&gt;Node3</title>
<path fill="none" stroke="midnightblue" d="M422.39,-112.44C397.54,-103.44 358.23,-89.19 330.25,-79.05"/>
<polygon fill="midnightblue" stroke="midnightblue" points="331.09,-75.63 320.5,-75.52 328.71,-82.21 331.09,-75.63"/>
</g>
<!-- Node8&#45;&gt;Node3 -->
<g id="edge13" class="edge">
<title>Node8&#45;&gt;Node3</title>
<path fill="none" stroke="midnightblue" d="M492.68,-114.39C489.77,-113.56 486.82,-112.75 484,-112 432.08,-98.22 371.56,-83.99 333.76,-75.32"/>
<polygon fill="midnightblue" stroke="midnightblue" points="334.26,-71.84 323.73,-73.02 332.7,-78.66 334.26,-71.84"/>
</g>
<!-- Node8&#45;&gt;Node4 -->
<g id="edge14" class="edge">
<title>Node8&#45;&gt;Node4</title>
<path fill="none" stroke="midnightblue" d="M497.89,-112.37C459.93,-93.21 368.42,-47.04 323.19,-24.22"/>
<polygon fill="midnightblue" stroke="midnightblue" points="324.53,-20.97 314.03,-19.59 321.38,-27.22 324.53,-20.97"/>
</g>
<!-- Node9&#45;&gt;Node3 -->
<g id="edge16" class="edge">
<title>Node9&#45;&gt;Node3</title>
<path fill="none" stroke="midnightblue" d="M172.45,-112.44C197.13,-103.44 236.19,-89.19 263.98,-79.05"/>
<polygon fill="midnightblue" stroke="midnightblue" points="265.46,-82.23 273.66,-75.52 263.06,-75.66 265.46,-82.23"/>
</g>
<!-- Node10&#45;&gt;Node3 -->
<g id="edge18" class="edge">
<title>Node10&#45;&gt;Node3</title>
<path fill="none" stroke="midnightblue" d="M234.89,-112.32C246.15,-104.11 263.29,-91.6 276.71,-81.81"/>
<polygon fill="midnightblue" stroke="midnightblue" points="278.88,-84.56 284.89,-75.83 274.75,-78.9 278.88,-84.56"/>
</g>
<!-- Node11&#45;&gt;Node3 -->
<g id="edge20" class="edge">
<title>Node11&#45;&gt;Node3</title>
<path fill="none" stroke="midnightblue" d="M297,-112.08C297,-105.01 297,-94.86 297,-85.99"/>
<polygon fill="midnightblue" stroke="midnightblue" points="300.5,-85.75 297,-75.75 293.5,-85.75 300.5,-85.75"/>
</g>
<!-- Node12&#45;&gt;Node3 -->
<g id="edge22" class="edge">
<title>Node12&#45;&gt;Node3</title>
<path fill="none" stroke="midnightblue" d="M555.22,-113.97C552.11,-113.29 548.99,-112.62 546,-112 470.84,-96.54 382.31,-81.23 333.66,-73.06"/>
<polygon fill="midnightblue" stroke="midnightblue" points="334.05,-69.58 323.61,-71.38 332.9,-76.48 334.05,-69.58"/>
</g>
<!-- Node12&#45;&gt;Node4 -->
<g id="edge23" class="edge">
<title>Node12&#45;&gt;Node4</title>
<path fill="none" stroke="midnightblue" d="M563.71,-112.42C532.33,-99.82 471.81,-75.68 420,-56 389.92,-44.58 355.51,-32.03 330.75,-23.1"/>
<polygon fill="midnightblue" stroke="midnightblue" points="331.7,-19.72 321.11,-19.62 329.33,-26.3 331.7,-19.72"/>
</g>
</g>
</svg>
