<?xml version="1.0" encoding="UTF-8" standalone="no"?>
<!DOCTYPE svg PUBLIC "-//W3C//DTD SVG 1.1//EN"
 "http://www.w3.org/Graphics/SVG/1.1/DTD/svg11.dtd">
<!-- Generated by graphviz version 2.43.0 (0)
 -->
<!-- Title: include/app.h Pages: 1 -->
<svg width="103pt" height="140pt"
 viewBox="0.00 0.00 102.50 140.00" xmlns="http://www.w3.org/2000/svg" xmlns:xlink="http://www.w3.org/1999/xlink">
<g id="graph0" class="graph" transform="scale(1 1) rotate(0) translate(4 136)">
<title>include/app.h</title>
<polygon fill="white" stroke="transparent" points="-4,4 -4,-136 98.5,-136 98.5,4 -4,4"/>
<!-- Node1 -->
<g id="node1" class="node">
<title>Node1</title>
<g id="a_node1"><a xlink:title="Aloo Application related functions.">
<polygon fill="#bfbfbf" stroke="black" points="12.5,-112.5 12.5,-131.5 94.5,-131.5 94.5,-112.5 12.5,-112.5"/>
<text text-anchor="middle" x="53.5" y="-119.5" font-family="Helvetica,sans-Serif" font-size="10.00">include/app.h</text>
</a>
</g>
</g>
<!-- Node2 -->
<g id="node2" class="node">
<title>Node2</title>
<g id="a_node2"><a xlink:href="$types_8h.html" xlink:title="Aloo Project Types related functions.">
<polygon fill="white" stroke="black" points="0,-56.5 0,-75.5 53,-75.5 53,-56.5 0,-56.5"/>
<text text-anchor="middle" x="26.5" y="-63.5" font-family="Helvetica,sans-Serif" font-size="10.00">types.h</text>
</a>
</g>
</g>
<!-- Node1&#45;&gt;Node2 -->
<g id="edge1" class="edge">
<title>Node1&#45;&gt;Node2</title>
<path fill="none" stroke="midnightblue" d="M49.04,-112.08C45.35,-104.69 39.98,-93.95 35.41,-84.81"/>
<polygon fill="midnightblue" stroke="midnightblue" points="38.48,-83.13 30.88,-75.75 32.22,-86.26 38.48,-83.13"/>
</g>
<!-- Node3 -->
<g id="node3" class="node">
<title>Node3</title>
<g id="a_node3"><a xlink:title=" ">
<polygon fill="white" stroke="#bfbfbf" points="23.5,-0.5 23.5,-19.5 83.5,-19.5 83.5,-0.5 23.5,-0.5"/>
<text text-anchor="middle" x="53.5" y="-7.5" font-family="Helvetica,sans-Serif" font-size="10.00">gtk/gtk.h</text>
</a>
</g>
</g>
<!-- Node1&#45;&gt;Node3 -->
<g id="edge3" class="edge">
<title>Node1&#45;&gt;Node3</title>
<path fill="none" stroke="midnightblue" d="M55.49,-112.43C57.47,-103.42 60.37,-88.8 61.5,-76 62.88,-60.41 60.46,-42.79 57.93,-29.83"/>
<polygon fill="midnightblue" stroke="midnightblue" points="61.3,-28.85 55.77,-19.81 54.46,-30.32 61.3,-28.85"/>
</g>
<!-- Node2&#45;&gt;Node3 -->
<g id="edge2" class="edge">
<title>Node2&#45;&gt;Node3</title>
<path fill="none" stroke="midnightblue" d="M30.96,-56.08C34.65,-48.69 40.02,-37.95 44.59,-28.81"/>
<polygon fill="midnightblue" stroke="midnightblue" points="47.78,-30.26 49.12,-19.75 41.52,-27.13 47.78,-30.26"/>
</g>
</g>
</svg>
